<svg width="505" height="330" viewBox="0 0 505 330" fill="none" xmlns="http://www.w3.org/2000/svg">
<path d="M348.288 0.197006H0.148651V222.759H348.288V0.197006Z" fill="#383838"/>
<path d="M338.333 28.1119H10.1036V209.593H338.333V28.1119Z" fill="#1F1F1F"/>
<path d="M348.139 0H0V14.7636H348.139V0Z" fill="#41BCF0"/>
<path d="M10.9909 10.2843C12.5048 10.2843 13.7321 9.05916 13.7321 7.54793C13.7321 6.03671 12.5048 4.81161 10.9909 4.81161C9.47693 4.81161 8.24963 6.03671 8.24963 7.54793C8.24963 9.05916 9.47693 10.2843 10.9909 10.2843Z" fill="white"/>
<path d="M21.396 10.2843C22.91 10.2843 24.1373 9.05916 24.1373 7.54793C24.1373 6.03671 22.91 4.81161 21.396 4.81161C19.8821 4.81161 18.6548 6.03671 18.6548 7.54793C18.6548 9.05916 19.8821 10.2843 21.396 10.2843Z" fill="white"/>
<path d="M31.8011 10.2843C33.3151 10.2843 34.5424 9.05916 34.5424 7.54793C34.5424 6.03671 33.3151 4.81161 31.8011 4.81161C30.2872 4.81161 29.0599 6.03671 29.0599 7.54793C29.0599 9.05916 30.2872 10.2843 31.8011 10.2843Z" fill="white"/>
<path d="M223.783 55.9746H38.0295V160.273H223.783V55.9746Z" fill="#41BCF0"/>
<path d="M320.439 55.9746H249.702V95.6928H320.439V55.9746Z" fill="#383838"/>
<path d="M320.439 108.258H249.702V147.977H320.439V108.258Z" fill="#383838"/>
<path d="M320.439 160.542H249.702V200.261H320.439V160.542Z" fill="#383838"/>
<path d="M166.005 177.791H38.0295V186.415H166.005V177.791Z" fill="#383838"/>
<path d="M155.205 108.124L114.707 84.784V131.463L155.205 108.124L114.707 84.784V131.463L155.205 108.124Z" fill="white"/>
<path d="M415.898 307.159L417.562 315.463L409.244 317.124L410.491 306.744L415.898 307.159Z" fill="#82655C"/>
<path d="M449.949 305.649L448.065 315.051L440.316 315.238L442.79 303.768L449.949 305.649Z" fill="#82655C"/>
<path d="M462.301 209.053L464.461 223.606C464.461 223.606 462.301 255.947 461.761 257.564C461.221 259.181 459.601 267.266 459.601 267.266L450.422 306.075C450.422 306.075 442.475 307.153 440.855 302.841L441.242 279.663L440.702 253.252L434.222 223.067L422.883 264.032C422.883 264.032 422.343 277.507 420.723 282.358C419.103 287.21 416.943 308.231 416.943 308.231C416.943 308.231 410.076 309.848 409.536 308.231C408.996 306.614 406.143 268.344 406.143 262.415C406.143 256.486 402.969 199.636 402.969 199.636L462.301 209.053Z" fill="#424343"/>
<path d="M442.804 314.515C443.694 314.698 444.612 314.698 445.502 314.515C446.514 314.178 445.502 312.159 445.502 312.159H449.212C449.212 312.159 453.258 321.248 454.945 321.921C456.631 322.594 462.027 330 455.619 330C451.665 329.949 447.807 328.782 444.49 326.634C444.49 326.634 443.816 323.604 440.781 323.267C437.745 322.931 435.722 319.228 435.722 319.228L439.016 313.157C439.11 312.986 439.248 312.843 439.416 312.743C439.584 312.643 439.776 312.59 439.972 312.59C440.167 312.59 440.359 312.642 440.528 312.741C440.696 312.84 440.835 312.982 440.929 313.153C441.387 313.961 442.023 314.671 442.804 314.515Z" fill="#424343"/>
<path d="M414.579 313.472C414.579 313.472 413.827 314.974 413.075 314.223C412.446 313.426 411.939 312.54 411.57 311.595C411.57 311.595 409.314 310.469 408.938 311.595C408.561 312.721 407.057 318.728 406.305 319.479C405.553 320.23 397.655 328.114 405.553 329.615C413.451 331.117 414.955 327.738 414.955 327.738C414.955 327.738 413.827 325.861 416.083 325.11C418.34 324.359 418.716 321.731 418.716 321.731L417.583 313.246C417.558 313.065 417.48 312.896 417.358 312.76C417.237 312.623 417.077 312.526 416.9 312.48C416.723 312.435 416.537 312.443 416.364 312.503C416.192 312.564 416.041 312.675 415.932 312.821C415.496 313.388 415.01 313.759 414.579 313.472Z" fill="#424343"/>
<path d="M474.721 171.323L476.341 199.351C476.341 199.351 483.901 217.138 473.641 216.599C463.381 216.06 469.861 198.812 469.861 198.812L459.816 173.797L474.721 171.323Z" fill="#82655C"/>
<path d="M391.564 163.237L389.944 191.266C389.944 191.266 382.384 209.053 392.644 208.514C402.904 207.975 396.424 190.727 396.424 190.727L406.469 165.712L391.564 163.237Z" fill="#82655C"/>
<path d="M434.762 102.329C442.516 102.329 448.802 96.055 448.802 88.3152C448.802 80.5753 442.516 74.3009 434.762 74.3009C427.009 74.3009 420.723 80.5753 420.723 88.3152C420.723 96.055 427.009 102.329 434.762 102.329Z" fill="#82655C"/>
<path d="M445.832 93.9748C445.832 93.9748 442.052 109.067 449.612 112.84C457.172 116.613 425.853 122.003 423.693 112.84L424.773 108.528C424.773 108.528 429.093 103.138 428.013 98.2868L445.832 93.9748Z" fill="#82655C"/>
<path d="M437.462 113.11C437.462 113.11 428.145 113.978 425.244 107.884C425.244 107.884 403.443 109.337 398.584 129.28C404.224 129.441 411.22 193.505 401.977 199.89C394.473 205.073 414.924 213.056 443.402 213.365L465.001 212.287C460.974 208.824 451.337 163.751 457.442 164.315C457.442 164.315 473.641 138.982 472.021 135.209C470.401 131.436 467.807 116.559 446.965 110.522C446.965 110.522 446.642 113.649 437.462 113.11Z" fill="#41BCF0"/>
<path d="M465.001 126.046L472.021 135.209C472.021 135.209 479.041 173.479 476.881 174.018C474.721 174.557 461.761 178.869 459.602 177.252C457.442 175.635 447.722 143.833 447.722 143.833L465.001 126.046Z" fill="#41BCF0"/>
<path d="M407.763 123.351L398.584 129.28C398.584 129.28 385.084 167.01 388.864 168.627C392.644 170.244 413.703 169.167 413.703 169.167L407.763 123.351Z" fill="#41BCF0"/>
<path d="M450.108 75.7735C450.108 75.7735 445.246 65.2562 435.925 67.6833C426.605 70.1103 421.336 73.7509 420.931 77.3915C420.526 81.0321 421.134 86.493 421.134 86.493C421.134 86.493 422.147 79.0096 428.631 80.6276C435.115 82.2457 445.246 81.0321 445.246 81.0321L446.867 95.5945C446.867 95.5945 448.69 92.9652 450.716 94.5833C452.743 96.2013 456.592 79.0096 450.108 75.7735Z" fill="#383838"/>
<path d="M504.794 329.702H365.62V328.567H505L504.794 329.702Z" fill="#3F3D56"/>
</svg>
